#!OML:ASF X:\für Bonn\!DataBase\2005_08_10_Bjorn_Final\c3d\bjorn.ASF
:FULLY-SPECIFIED
:DEGREES
80
root 2.92785 19.2443 2.44069 -172.445 -6.80574 173.283
lowerback -4.36412 -2.78655 5.12693
upperback 6.65446 -4.60585 0.3083
thorax 9.14267 -2.05289 -3.10729
lowerneck -6.6441 3.40394 -3.68118
upperneck 6.09071 6.26793 -9.71004
head 3.40746 2.89082 -2.23999
rclavicle 1.94809e-014 -3.02153e-014
rhumerus -27.6082 -20.1668 -82.5882
rradius 29.5164
rwrist 5.90129
rhand -13.9061 16.2691
rfingers 7.12502
rthumb 12.2197 -13.3539
lclavicle 1.94809e-014 -3.02153e-014
lhumerus -40.8947 -28.6976 97.2364
lradius 41.294
lwrist -9.20068
lhand -41.8571 -15.1189
lfingers 7.12502
lthumb -14.7575 14.3357
rfemur -23.9828 -0.584454 12.4953
rtibia 35.9112
rfoot -16.3405 11.0806
rtoes -14.7014
lfemur -13.9664 11.9108 -18.1701
ltibia 107.518
lfoot -14.0493 -3.10581
ltoes -17.6651
81
root 2.94355 19.2643 2.41258 -172.928 -6.88187 173.165
lowerback -4.33387 -2.85576 4.86474
upperback 6.63709 -4.65247 0.139354
thorax 9.10367 -2.0862 -3.14259
lowerneck -6.6705 3.4475 -3.83513
upperneck 6.46436 6.35462 -9.44221
head 3.52721 2.91854 -2.11784
rclavicle -2.78299e-014 7.95139e-015
rhumerus -27.3204 -20.0356 -83.0809
rradius 29.5294
rwrist 5.80835
rhand -14.271 16.3816
rfingers 7.12502
rthumb 11.8678 -13.2621
lclavicle -2.78299e-014 7.95139e-015
lhumerus -40.9166 -29.0576 96.8017
lradius 41.2238
lwrist -8.76484
lhand -42.4705 -15.1005
lfingers 7.12502
lthumb -15.3483 14.3099
rfemur -23.0222 -0.499633 12.4326
rtibia 35.385
rfoot -16.3329 10.921
rtoes -14.9391
lfemur -14.3756 12.5308 -17.0663
ltibia 111.23
lfoot -13.5048 -4.5443
ltoes -17.0734
82
root 2.9632 19.2842 2.38573 -173.419 -6.9882 172.983
lowerback -4.26446 -2.94054 4.47416
upperback 6.64352 -4.71052 -0.0449414
thorax 9.07462 -2.13427 -3.12259
lowerneck -6.78305 3.47697 -4.01565
upperneck 6.84427 6.42454 -9.13153
head 3.66264 2.93561 -1.9759
rclavicle 1.66979e-014 -1.19271e-014
rhumerus -27.0218 -20.0192 -83.5561
rradius 29.4931
rwrist 5.82342
rhand -14.5991 16.5662
rfingers 7.12502
rthumb 11.5514 -13.0954
lclavicle 1.66979e-014 -1.19271e-014
lhumerus -40.8292 -29.3347 96.2512
lradius 41.2063
lwrist -8.26829
lhand -42.9636 -14.933
lfingers 7.12502
lthumb -15.8233 14.4404
rfemur -22.0361 -0.385126 12.3112
rtibia 34.8547
rfoot -16.3392 10.6894
rtoes -15.2481
lfemur -14.854 13.2511 -15.8305
ltibia 114.935
lfoot -12.9656 -6.03079
ltoes -16.0251
83
root 2.98552 19.3028 2.36095 -173.92 -7.13045 172.746
lowerback -4.18891 -3.02838 4.00597
upperback 6.69673 -4.7703 -0.275592
thorax 9.09593 -2.18681 -3.11081
lowerneck -6.97371 3.49086 -4.18109
upperneck 7.23909 6.4676 -8.76819
head 3.81646 2.93741 -1.81885
rclavicle -6.04305e-014 1.19271e-014
rhumerus -26.7733 -20.0883 -84.0747
rradius 29.5191
rwrist 5.91916
rhand -14.8975 16.7987
rfingers 7.12502
rthumb 11.2636 -12.8789
lclavicle -6.04305e-014 1.19271e-014
lhumerus -40.605 -29.5773 95.5404
lradius 41.2532
lwrist -7.68987
lhand -43.3106 -14.6868
lfingers 7.12502
lthumb -16.1575 14.6598
rfemur -21.0392 -0.299035 12.1367
rtibia 34.3323
rfoot -16.3291 10.459
rtoes -15.4317
lfemur -15.3466 14.08 -14.4391
ltibia 118.57
lfoot -12.8767 -7.77081
ltoes -16.076
84
root 3.01065 19.3206 2.33971 -174.443 -7.29766 172.504
lowerback -4.04998 -3.1189 3.47529
upperback 6.75596 -4.83123 -0.496999
thorax 9.09276 -2.24735 -3.05049
lowerneck -7.13149 3.4971 -4.38201
upperneck 7.60994 6.49368 -8.3695
head 3.95279 2.93391 -1.64479
rclavicle 3.53837e-014 -1.19271e-014
rhumerus -26.6264 -20.0938 -84.5688
rradius 29.6177
rwrist 5.96914
rhand -15.1483 17.0383
rfingers 7.12502
rthumb 11.0217 -12.6524
lclavicle 3.53837e-014 -1.19271e-014
lhumerus -40.2865 -29.6989 94.7757
lradius 41.3055
lwrist -7.04704
lhand -43.7449 -14.5767
lfingers 7.12502
lthumb -16.5756 14.7354
rfemur -20.0352 -0.218653 11.9672
rtibia 33.826
rfoot -16.3236 10.2082
rtoes -15.6461
lfemur -15.8211 15.0769 -12.7354
ltibia 122.094
lfoot -13.3493 -9.88767
ltoes -16.8477
85
root 3.03718 19.3364 2.32303 -174.963 -7.52407 172.25
lowerback -3.86666 -3.20741 2.9437
upperback 6.82508 -4.8904 -0.756598
thorax 9.0725 -2.3078 -3.0269
lowerneck -7.31268 3.48667 -4.46741
upperneck 7.99001 6.48858 -8.00944
head 4.10375 2.91586 -1.50526
rclavicle 4.17448e-014 -2.22639e-014
rhumerus -26.5115 -20.15 -85.0788
rradius 29.7044
rwrist 6.04675
rhand -15.3823 17.3061
rfingers 7.12502
rthumb 10.796 -12.3964
lclavicle 4.17448e-014 -2.22639e-014
lhumerus -39.8576 -29.7805 93.8781
lradius 41.3785
lwrist -6.41067
lhand -44.3414 -14.6284
lfingers 7.12502
lthumb -17.1499 14.6347
rfemur -19.0485 -0.168207 11.7884
rtibia 33.3423
rfoot -16.3225 9.9562
rtoes -15.9064
lfemur -16.2752 16.2742 -10.6852
ltibia 125.469
lfoot -13.9062 -12.02
ltoes -16.5407
86
root 3.06667 19.3494 2.31238 -175.525 -7.8308 172.039
lowerback -3.57164 -3.29917 2.41526
upperback 6.89189 -4.95819 -1.01048
thorax 8.98469 -2.37663 -2.99076
lowerneck -7.46094 3.46198 -4.45196
upperneck 8.39662 6.46131 -7.7115
head 4.26548 2.88907 -1.40603
rclavicle -1.59028e-015 -9.54166e-015
rhumerus -26.4613 -20.2152 -85.5628
rradius 29.8042
rwrist 6.06954
rhand -15.5626 17.593
rfingers 7.12502
rthumb 10.6221 -12.1185
lclavicle -1.59028e-015 -9.54166e-015
lhumerus -39.3451 -29.8768 92.935
lradius 41.4657
lwrist -5.70224
lhand -44.9044 -14.8049
lfingers 7.12502
lthumb -17.6916 14.4103
rfemur -18.0422 -0.143113 11.6739
rtibia 32.8975
rfoot -16.3242 9.62804
rtoes -16.1142
lfemur -16.6513 17.6787 -8.15442
ltibia 128.612
lfoot -14.1054 -14.3186
ltoes -14.6924
87
root 3.09804 19.3591 2.30686 -176.137 -8.20141 171.906
lowerback -3.17499 -3.38451 1.93839
upperback 6.98342 -5.03204 -1.24736
thorax 8.86267 -2.44935 -2.95861
lowerneck -7.60387 3.41389 -4.39581
upperneck 8.76616 6.3966 -7.44887
head 4.41646 2.84672 -1.32808
rclavicle -1.90833e-014 -1.03368e-014
rhumerus -26.4317 -20.2665 -86.0191
rradius 29.9308
rwrist 6.098
rhand -15.6676 17.8608
rfingers 7.12502
rthumb 10.5209 -11.8559
lclavicle -1.90833e-014 -1.03368e-014
lhumerus -38.6618 -29.9234 91.9043
lradius 41.5129
lwrist -5.04185
lhand -45.4063 -15.1854
lfingers 7.12502
lthumb -18.1746 13.9855
rfemur -17.0274 -0.194589 11.6535
rtibia 32.4959
rfoot -16.3272 9.33477
rtoes -16.3031
lfemur -17.1819 19.4303 -5.1128
ltibia 131.631
lfoot -14.4346 -16.483
ltoes -13.5017
